<?xml version="1.0" encoding="UTF-8"?>
<!DOCTYPE svg PUBLIC "-//W3C//DTD SVG 1.1//EN" "http://www.w3.org/Graphics/SVG/1.1/DTD/svg11.dtd">
<!-- Creator: CorelDRAW (OEM Version) -->
<svg xmlns="http://www.w3.org/2000/svg" xml:space="preserve" width="512px" height="512px" version="1.1" style="shape-rendering:geometricPrecision; text-rendering:geometricPrecision; image-rendering:optimizeQuality; fill-rule:evenodd; clip-rule:evenodd"
viewBox="0 0 26.07 26.07"
 xmlns:xlink="http://www.w3.org/1999/xlink"
 xmlns:xodm="http://www.corel.com/coreldraw/odm/2003">
 <defs>
  <style type="text/css">
   <![CDATA[
    .fil0 {fill:#C51E3A}
   ]]>
  </style>
 </defs>
 <g id="Layer_x0020_1">
  <metadata id="CorelCorpID_0Corel-Layer"/>
  <path class="fil0" d="M13.03 0c7.2,0 13.04,5.83 13.04,13.03 0,7.2 -5.84,13.04 -13.04,13.04 -7.2,0 -13.03,-5.84 -13.03,-13.04 0,-7.2 5.83,-13.03 13.03,-13.03zm1.73 9.63c-0.47,-0.32 -0.71,-0.71 -1.74,-1.33 -1.76,-1.06 -3.4,-1.03 -5.03,0.19 -0.43,0.32 -0.81,0.71 -1.13,1.14 -1.75,2.32 -0.28,5.71 -0.28,7.79 0,0.57 0.03,1.01 -0.23,1.53 -0.24,0.49 -0.47,0.47 -0.47,0.83 0,0.2 0.18,0.35 0.38,0.35 0.35,0 0.54,-0.74 1.98,-0.74 0.91,0 1.78,0.18 2.58,0.31 2.25,0.38 4.37,0.69 6.12,-1.06 2.25,-2.26 1.81,-4.65 -0.14,-6.89 -0.09,-0.1 -0.32,-0.34 -0.35,-0.43 0.09,-0.04 0.57,-0.08 0.71,-0.11 1.21,-0.2 2.07,-0.51 3.15,-1.04 0.24,-0.12 0.94,-0.46 0.94,-0.76 0,-0.24 -0.09,-0.42 -0.39,-0.42 -0.12,0 -0.78,0.43 -1.06,0.57 -1.06,0.53 -1.91,0.76 -3.11,0.94l-0.77 0.08 0.59 -0.68c0.67,-0.66 1.33,-1.21 2.11,-1.73 0.78,-0.52 1.71,-0.98 2.63,-1.22 0.39,-0.11 0.81,-0.09 0.81,-0.53 0,-0.63 -1.06,-0.22 -1.35,-0.12 -0.34,0.11 -0.59,0.21 -0.9,0.34 -0.3,0.13 -0.56,0.26 -0.82,0.41 -0.9,0.52 -1.51,0.93 -2.33,1.65l-1.12 1.1c0.01,-0.53 0.63,-2.31 0.82,-2.77 0.26,-0.65 0.55,-1.23 0.88,-1.83 0.08,-0.15 0.31,-0.46 0.31,-0.62 0,-0.2 -0.19,-0.38 -0.39,-0.38 -0.27,0 -0.39,0.27 -0.5,0.45 -0.12,0.2 -0.24,0.43 -0.35,0.64 -0.22,0.44 -0.44,0.87 -0.63,1.34 -0.28,0.72 -0.54,1.45 -0.73,2.2 -0.04,0.18 -0.13,0.68 -0.19,0.8z"/>
 </g>
</svg>
