<?xml version="1.0" encoding="UTF-8"?>
<svg xmlns="http://www.w3.org/2000/svg" xml:space="preserve" version="1.1" 
viewBox="0 0 50.59 9.52"
 xmlns:xlink="http://www.w3.org/1999/xlink"
 xmlns:xodm="http://www.corel.com/coreldraw/odm/2003">
 <g>
  <path fill="currentColor" d="M8.87 7.57c0,0.2 -0.04,0.41 -0.11,0.63 -0.07,0.23 -0.18,0.44 -0.33,0.64 -0.16,0.19 -0.36,0.35 -0.6,0.48 -0.25,0.13 -0.55,0.2 -0.91,0.2l-6.11 0c-0.12,0 -0.22,-0.02 -0.32,-0.06 -0.1,-0.05 -0.19,-0.1 -0.26,-0.18 -0.07,-0.07 -0.13,-0.15 -0.17,-0.25 -0.04,-0.1 -0.06,-0.21 -0.06,-0.32l0 -7.25c0,-0.12 0.02,-0.22 0.06,-0.32 0.04,-0.1 0.1,-0.19 0.17,-0.26 0.07,-0.08 0.16,-0.13 0.26,-0.17 0.1,-0.04 0.2,-0.07 0.32,-0.07l5.38 0c0.2,0 0.41,0.04 0.64,0.11 0.23,0.07 0.44,0.18 0.63,0.34 0.2,0.15 0.36,0.35 0.49,0.6 0.13,0.25 0.2,0.55 0.2,0.91l0 0.3c0,0.29 -0.05,0.59 -0.14,0.92 -0.1,0.33 -0.25,0.64 -0.46,0.93 0.18,0.11 0.35,0.25 0.51,0.41 0.16,0.15 0.3,0.33 0.42,0.54 0.12,0.21 0.21,0.44 0.28,0.7 0.07,0.26 0.11,0.54 0.11,0.86l0 0.31zm-1.61 -0.31c0,-0.21 -0.04,-0.4 -0.1,-0.57 -0.07,-0.16 -0.16,-0.31 -0.28,-0.43 -0.12,-0.12 -0.27,-0.21 -0.43,-0.27 -0.17,-0.07 -0.36,-0.1 -0.57,-0.1l-3.63 0 0 -1.62 2.9 0c0.21,0 0.4,-0.03 0.57,-0.1 0.17,-0.06 0.32,-0.15 0.44,-0.27 0.11,-0.12 0.21,-0.27 0.27,-0.43 0.06,-0.17 0.1,-0.36 0.1,-0.57l0 -0.3c0,-0.23 -0.11,-0.35 -0.34,-0.35l-4.58 0 0 5.66 5.31 0c0.03,0 0.06,0 0.1,-0.01 0.04,0 0.08,-0.02 0.11,-0.04 0.04,-0.02 0.07,-0.05 0.09,-0.1 0.02,-0.05 0.04,-0.12 0.04,-0.21l0 -0.29zm4.46 -5.8l-1.61 0 0 -1.46 1.61 0 0 1.46zm0 8.06l-1.61 0 0 -6.69 1.61 0 0 6.69zm7.62 -5.08l-2.81 0 0 5.08 -1.63 0 0 -5.08 -2.09 0 0 -1.61 2.09 0 0 -2.19 1.63 0 0 2.19 2.81 0 0 1.61zm6.87 0l-3.62 0c-0.21,0 -0.38,0.05 -0.49,0.16 -0.11,0.11 -0.17,0.27 -0.17,0.48l0 4.44 -1.61 0 0 -4.44c0,-0.28 0.04,-0.52 0.11,-0.74 0.07,-0.22 0.16,-0.41 0.28,-0.58 0.12,-0.17 0.25,-0.31 0.41,-0.43 0.15,-0.12 0.31,-0.21 0.47,-0.28 0.17,-0.08 0.34,-0.13 0.51,-0.17 0.17,-0.04 0.33,-0.05 0.48,-0.05l3.63 0 0 1.61zm8.31 2.82c0,0.27 -0.03,0.52 -0.1,0.74 -0.07,0.22 -0.16,0.42 -0.28,0.59 -0.12,0.16 -0.25,0.31 -0.4,0.42 -0.16,0.12 -0.31,0.22 -0.48,0.29 -0.17,0.07 -0.34,0.13 -0.51,0.16 -0.17,0.04 -0.33,0.06 -0.49,0.06l-2.9 0c-0.22,0 -0.46,-0.04 -0.73,-0.12 -0.26,-0.08 -0.51,-0.21 -0.73,-0.39 -0.23,-0.18 -0.41,-0.41 -0.56,-0.7 -0.15,-0.28 -0.23,-0.64 -0.23,-1.05l0 -2.18c0,-0.41 0.08,-0.76 0.23,-1.05 0.15,-0.29 0.33,-0.52 0.56,-0.7 0.22,-0.18 0.47,-0.31 0.73,-0.38 0.27,-0.08 0.51,-0.12 0.73,-0.12l2.9 0c0.42,0 0.77,0.07 1.06,0.22 0.29,0.15 0.52,0.34 0.7,0.56 0.17,0.23 0.3,0.47 0.38,0.73 0.08,0.27 0.12,0.51 0.12,0.74l0 2.18zm-1.61 -2.17c0,-0.22 -0.05,-0.38 -0.16,-0.49 -0.11,-0.11 -0.27,-0.16 -0.49,-0.16l-2.88 0c-0.22,0 -0.38,0.05 -0.49,0.16 -0.11,0.11 -0.17,0.27 -0.17,0.48l0 2.18c0,0.21 0.06,0.37 0.17,0.48 0.11,0.11 0.27,0.17 0.49,0.17l2.88 0c0.22,0 0.39,-0.06 0.49,-0.17 0.11,-0.11 0.16,-0.27 0.16,-0.48l0 -2.17zm10.26 2.17c0,0.27 -0.04,0.52 -0.11,0.74 -0.07,0.22 -0.16,0.42 -0.28,0.59 -0.11,0.16 -0.25,0.31 -0.4,0.42 -0.15,0.12 -0.31,0.22 -0.48,0.29 -0.16,0.07 -0.33,0.13 -0.51,0.16 -0.17,0.04 -0.33,0.06 -0.48,0.06l-2.9 0c-0.23,0 -0.47,-0.04 -0.73,-0.12 -0.27,-0.08 -0.51,-0.21 -0.73,-0.39 -0.23,-0.18 -0.42,-0.41 -0.57,-0.7 -0.15,-0.28 -0.22,-0.64 -0.22,-1.05l0 -2.18c0,-0.41 0.07,-0.76 0.22,-1.05 0.15,-0.29 0.34,-0.52 0.57,-0.7 0.22,-0.18 0.46,-0.31 0.73,-0.38 0.26,-0.08 0.5,-0.12 0.73,-0.12l2.9 0c0.41,0 0.76,0.07 1.05,0.22 0.29,0.15 0.52,0.34 0.7,0.56 0.18,0.23 0.31,0.47 0.39,0.73 0.08,0.27 0.12,0.51 0.12,0.74l0 2.18zm-1.61 -2.17c0,-0.22 -0.06,-0.38 -0.17,-0.49 -0.11,-0.11 -0.27,-0.16 -0.48,-0.16l-2.89 0c-0.21,0 -0.38,0.05 -0.49,0.16 -0.11,0.11 -0.17,0.27 -0.17,0.48l0 2.18c0,0.21 0.06,0.37 0.17,0.48 0.11,0.11 0.28,0.17 0.49,0.17l2.89 0c0.22,0 0.38,-0.06 0.49,-0.17 0.11,-0.11 0.16,-0.27 0.16,-0.48l0 -2.17zm9.03 -0.65l-2.81 0 0 5.08 -1.63 0 0 -5.08 -2.09 0 0 -1.61 2.09 0 0 -2.19 1.63 0 0 2.19 2.81 0 0 1.61z"/>
 </g>
</svg>
