<?xml version="1.0" encoding="UTF-8"?>
<!DOCTYPE svg PUBLIC "-//W3C//DTD SVG 1.1//EN" "http://www.w3.org/Graphics/SVG/1.1/DTD/svg11.dtd">
<!-- Creator: CorelDRAW (OEM Version) -->
<svg xmlns="http://www.w3.org/2000/svg" xml:space="preserve" width="24px" height="29px" version="1.1" style="shape-rendering:geometricPrecision; text-rendering:geometricPrecision; image-rendering:optimizeQuality; fill-rule:evenodd; clip-rule:evenodd"
viewBox="0 0 1.48 1.77"
 xmlns:xlink="http://www.w3.org/1999/xlink"
 xmlns:xodm="http://www.corel.com/coreldraw/odm/2003">
 <defs>
  <style type="text/css">
   <![CDATA[
    .fil0 {fill:#9E1156}
   ]]>
  </style>
 </defs>
 <g id="Layer_x0020_1">
  <metadata id="CorelCorpID_0Corel-Layer"/>
  <path class="fil0" d="M0.62 0.82c-0.06,0.02 -0.11,0 -0.24,0.04 -0.22,0.05 -0.34,0.18 -0.37,0.4 -0.01,0.06 -0.01,0.12 0,0.17 0.03,0.25 0.26,0.34 0.74,0.34 0.46,0 0.69,-0.11 0.73,-0.42 0,-0.35 -0.22,-0.5 -0.54,-0.52 -0.02,0 -0.05,0 -0.06,-0.01 0,-0.01 0.04,-0.05 0.04,-0.06 0.08,-0.11 0.12,-0.2 0.17,-0.32 0.01,-0.03 0.03,-0.11 0.01,-0.13 -0.02,-0.02 -0.04,-0.03 -0.06,-0.01 -0.01,0.01 -0.03,0.1 -0.04,0.13 -0.04,0.12 -0.09,0.21 -0.17,0.31l-0.05 0.07 -0.01 -0.1c0,-0.1 0.01,-0.2 0.03,-0.3 0.02,-0.1 0.06,-0.2 0.11,-0.29 0.02,-0.04 0.06,-0.07 0.02,-0.11 -0.05,-0.05 -0.1,0.07 -0.11,0.1 -0.02,0.03 -0.03,0.06 -0.04,0.09 -0.02,0.04 -0.03,0.07 -0.04,0.1 -0.03,0.11 -0.04,0.19 -0.05,0.31l0 0.17c-0.04,-0.05 -0.13,-0.23 -0.15,-0.28 -0.03,-0.07 -0.05,-0.14 -0.07,-0.21 -0.01,-0.02 -0.02,-0.06 -0.03,-0.07 -0.01,-0.02 -0.04,-0.02 -0.06,0 -0.02,0.02 -0.01,0.05 0,0.07 0.01,0.03 0.01,0.05 0.02,0.08 0.02,0.05 0.03,0.1 0.06,0.15 0.03,0.08 0.07,0.15 0.11,0.23 0.01,0.01 0.04,0.06 0.05,0.07zm-0.44 0.41l0.01 0.03 0 0.02 0.01 0.01c0,0 0.01,0 0.01,0l0.03 0.04c0.04,0.05 0.16,0.04 0.22,0.02 0.04,-0.02 0.18,-0.1 0.1,-0.13 -0.01,0.05 -0.05,0.08 -0.11,0.08 -0.13,0.01 -0.06,-0.11 -0.13,-0.11 -0.03,0.02 -0.04,0.01 -0.08,0.01 -0.03,0.01 -0.04,0.02 -0.06,0.03zm0.91 -0.02c-0.02,0.06 -0.04,0.09 -0.1,0.09 -0.09,0.01 -0.1,-0.04 -0.13,-0.09 -0.08,0 -0.09,0.02 -0.04,0.08 0.03,0.03 0.07,0.05 0.13,0.06 0.09,0 0.28,-0.02 0.28,-0.12 -0.03,-0.02 -0.1,-0.03 -0.14,-0.02zm-0.73 0l0 0zm0.44 -0.16c0.03,0.06 0.37,-0.01 0.47,0.1 0.02,0.01 0.03,0.03 0.04,0.04 0.02,-0.16 -0.51,-0.14 -0.51,-0.14zm-0.09 0.55c0.01,-0.07 -0.06,-0.1 -0.13,-0.1 -0.06,-0.01 -0.1,0.03 -0.09,0.09 0.04,-0.01 0.04,-0.04 0.11,-0.04 0.05,0 0.08,0.03 0.11,0.05zm-0.52 -0.58c0.02,0.01 0.14,-0.01 0.17,-0.01 0.07,-0.01 0.13,0 0.2,0 -0.01,-0.01 0.01,-0.02 -0.07,-0.02 -0.06,0 -0.27,-0.02 -0.3,0.03zm0.21 0.17c0.01,0.04 0.01,0.03 0.02,0.06 0.06,0.01 0.11,0 0.1,-0.06l-0.12 0zm0.64 0.02l-0.12 0c0,0.03 0.01,0.05 0.04,0.05 0.05,0.01 0.06,-0.01 0.08,-0.02l0 -0.03zm-0.41 0.23c0.01,-0.02 -0.07,-0.07 -0.01,-0.12 0.04,-0.03 0.08,0.02 0.12,0.01 -0.09,-0.11 -0.24,0.04 -0.11,0.11z"/>
 </g>
</svg>
