<?xml version="1.0" encoding="utf-8"?><!-- Uploaded to: SVG Repo, www.svgrepo.com, Generator: SVG Repo Mixer Tools -->
<svg width="24px" height="24px" viewBox="0 0 2.61 2.59" fill="none" xmlns="http://www.w3.org/2000/svg" style="shape-rendering:geometricPrecision; text-rendering:geometricPrecision; image-rendering:optimizeQuality; fill-rule:evenodd; clip-rule:evenodd">
 <g>
  <path fill="#D10B2C" d="M0.34 2.59l1.93 0c0.19,0 0.34,-0.16 0.34,-0.34l0 -1.91c0,-0.19 -0.15,-0.34 -0.34,-0.34l-1.93 0c-0.19,0 -0.34,0.15 -0.34,0.34l0 1.91c0,0.18 0.15,0.34 0.34,0.34zm0.34 -1.77c0.14,0 0.12,0.16 0.04,0.19 -0.04,0.01 -0.07,0 -0.1,-0.03 -0.05,-0.05 -0.01,-0.16 0.06,-0.16zm-0.16 0.09c0,0.17 0.21,0.23 0.3,0.11 0.01,-0.01 0.02,-0.02 0.02,-0.04 0.05,-0.1 -0.02,-0.21 -0.11,-0.23 -0.13,-0.02 -0.21,0.07 -0.21,0.16zm1.13 0.17c0,-0.11 0.19,-0.14 0.19,0.01 0,0.11 -0.19,0.13 -0.19,-0.01zm-0.07 -0.01c0,0.05 0,0.09 0.06,0.14 0.11,0.11 0.28,-0.01 0.28,-0.1l0 -0.04c0,-0.08 -0.08,-0.16 -0.18,-0.16 -0.08,0 -0.16,0.08 -0.16,0.16zm-0.5 0.51c0.05,0.04 0.07,0.07 0.1,-0.11l0.16 -0.97c0.02,-0.09 0.03,-0.11 -0.03,-0.13 -0.02,0.02 -0.02,0.02 -0.03,0.05l-0.2 1.16zm-0.17 0.58c0,0.05 0.05,0.06 0.13,0.07 0.23,0.03 0.42,0.01 0.62,-0.1 0.1,-0.06 0.18,-0.13 0.26,-0.21 0.03,-0.04 0.08,-0.13 0.11,-0.17 0.07,-0.13 0.08,-0.14 0.03,-0.17 -0.05,0.01 -0.07,0.1 -0.13,0.2 -0.05,0.07 -0.07,0.08 -0.1,0.13 -0.07,0.08 -0.24,0.18 -0.35,0.21 -0.36,0.12 -0.57,-0.04 -0.57,0.04z"/>
 </g>
</svg>
