<?xml version="1.0" encoding="UTF-8"?>
<!DOCTYPE svg PUBLIC "-//W3C//DTD SVG 1.1//EN" "http://www.w3.org/Graphics/SVG/1.1/DTD/svg11.dtd">
<!-- Creator: CorelDRAW (OEM Version) -->
<svg xmlns="http://www.w3.org/2000/svg" xml:space="preserve" width="24px" height="24px" version="1.1" style="shape-rendering:geometricPrecision; text-rendering:geometricPrecision; image-rendering:optimizeQuality; fill-rule:evenodd; clip-rule:evenodd"
viewBox="0 0 1.56 1.54"
 xmlns:xlink="http://www.w3.org/1999/xlink"
 xmlns:xodm="http://www.corel.com/coreldraw/odm/2003">
 <g>
  <path fill="currentColor" d="M0.86 0.52c-0.05,-0.03 -0.08,-0.07 -0.18,-0.14 -0.18,-0.08 -0.31,-0.09 -0.47,0.03 -0.05,0.04 -0.09,0.09 -0.13,0.13 -0.16,0.25 -0.01,0.52 -0.01,0.72 0,0.06 0.01,0.1 -0.02,0.16 -0.03,0.05 -0.05,0.04 -0.05,0.08 0,0.02 0.02,0.04 0.04,0.04 0.04,0 0.05,-0.08 0.2,-0.08 0.09,0 0.18,0.02 0.26,0.03 0.23,0.04 0.39,0.05 0.55,-0.08 0.23,-0.23 0.21,-0.45 0.01,-0.68 -0.01,-0.01 -0.03,-0.03 -0.04,-0.04 0.01,-0.01 0.06,-0.01 0.08,-0.01 0.12,-0.02 0.17,-0.05 0.28,-0.1 0.03,-0.01 0.11,-0.05 0.11,-0.08 0,-0.02 -0.01,-0.04 -0.04,-0.04 -0.02,0 -0.08,0.04 -0.11,0.06 -0.11,0.05 -0.17,0.07 -0.29,0.09l-0.08 0 0.06 -0.06c0.07,-0.07 0.14,-0.12 0.21,-0.18 0.08,-0.05 0.14,-0.08 0.24,-0.1 0.04,-0.01 0.08,-0.01 0.08,-0.06 0,-0.06 -0.1,-0.02 -0.13,-0.01 -0.04,0.01 -0.06,0.03 -0.09,0.04 -0.04,0.01 -0.06,0.03 -0.09,0.04 -0.09,0.05 -0.12,0.08 -0.21,0.15l-0.11 0.11c0.01,-0.05 0.06,-0.21 0.08,-0.25 0.02,-0.07 0.05,-0.13 0.09,-0.19 0,-0.01 0.03,-0.04 0.03,-0.06 0,-0.02 -0.02,-0.04 -0.04,-0.04 -0.03,0 -0.04,0.03 -0.05,0.05 -0.02,0.02 -0.03,0.04 -0.04,0.06 -0.02,0.05 -0.04,0.1 -0.06,0.14 -0.03,0.08 -0.04,0.12 -0.06,0.19 -0.01,0.02 -0.02,0.07 -0.02,0.08z"/>
 </g>
</svg>
