<svg
  xmlns="http://www.w3.org/2000/svg"
  width="24"
  height="26"
  viewBox="0 0 2.86 3.11"
>
  <path
    fill="#C51E3A"
    d="M0.43 2.2l-0.06 0c0,-0.46 0.23,-0.79 0.68,-0.79l0 0.06c-0.39,0.01 -0.62,0.33 -0.62,0.73zm0.95 -2.2l0.09 0c0.12,0.03 0.22,0.19 0.22,0.47 0.01,0 0.59,-0.47 0.59,0 0,0.34 -0.44,0.51 -0.53,0.59 0.48,0 0.72,0.12 0.92,0.4 0.17,0.26 0.25,0.68 0.13,1.05 -0.25,0.74 -1.18,0.59 -1.78,0.58 -0.36,-0.01 -0.83,-0.14 -0.97,-0.6 -0.11,-0.37 -0.03,-0.79 0.15,-1.05 0.2,-0.27 0.44,-0.38 0.91,-0.38 -0.03,-0.03 0,-0.01 -0.05,-0.04l-0.14 -0.08c-0.13,-0.08 -0.34,-0.27 -0.34,-0.44 0,-0.51 0.55,-0.06 0.58,-0.03 0,-0.28 0.11,-0.44 0.22,-0.47zm-0.22 2.57c0.02,0 0.04,-0.02 0.06,-0.03 0.11,-0.04 0.24,-0.06 0.34,-0.02 0.03,0.01 0.04,0.02 0.06,0.03 0.02,0.01 0.04,0.02 0.05,0.03 -0.01,0.03 -0.06,0.06 -0.1,0.08 -0.1,0.04 -0.21,0.03 -0.3,-0.01 -0.03,-0.01 -0.04,-0.02 -0.06,-0.03 -0.02,-0.02 -0.04,-0.03 -0.05,-0.05zm-0.01 -0.29c-0.04,0 -0.14,0 -0.18,0.01 -0.07,0.01 0,0.23 0.13,0.34 0.29,0.24 0.73,0.07 0.79,-0.25 0.01,-0.05 0.02,-0.09 -0.04,-0.1 -0.11,-0.01 -0.24,0 -0.35,0 -0.12,0 -0.24,0 -0.35,0z"
  />
</svg>
