<?xml version="1.0" encoding="UTF-8"?>
<!DOCTYPE svg PUBLIC "-//W3C//DTD SVG 1.1//EN" "http://www.w3.org/Graphics/SVG/1.1/DTD/svg11.dtd">
<!-- Creator: CorelDRAW (OEM Version) -->
<svg xmlns="http://www.w3.org/2000/svg" xml:space="preserve" width="24px" height="24px" version="1.1" style="shape-rendering:geometricPrecision; text-rendering:geometricPrecision; image-rendering:optimizeQuality; fill-rule:evenodd; clip-rule:evenodd"
viewBox="0 0 0.83 0.84"
 xmlns:xlink="http://www.w3.org/1999/xlink"
 xmlns:xodm="http://www.corel.com/coreldraw/odm/2003">
 <defs>
  <style type="text/css">
   <![CDATA[
    .fil0 {fill:#3E4095}
    .fil1 {fill:#FEFEFE}
   ]]>
  </style>
 </defs>
 <g id="Layer_x0020_1">
  <metadata id="CorelCorpID_0Corel-Layer"/>
  <g id="_2169337601568">
   <path class="fil0" d="M0.45 0c-0.01,0 -0.13,0.05 -0.15,0.05 -0.05,0.02 -0.11,0.04 -0.16,0.06 -0.03,0.01 -0.05,0.02 -0.07,0.05 -0.01,0.02 -0.01,0.04 -0.02,0.07l-0.05 0.26c0,0.04 0,0.06 0.01,0.09 0.02,0.02 0.04,0.03 0.06,0.05l0.07 0.06c0.04,0.03 0.09,0.07 0.13,0.1l0.03 0.03c0.02,0.01 0.05,0.02 0.08,0.01 0.02,0 0.14,-0.04 0.16,-0.05 0.05,-0.02 0.1,-0.03 0.15,-0.05 0.04,-0.02 0.07,-0.04 0.08,-0.08 0.01,-0.01 0.01,-0.02 0.01,-0.04l0.05 -0.26c0.01,-0.04 0.01,-0.06 -0.01,-0.09 -0.01,-0.03 -0.03,-0.04 -0.05,-0.05 -0.02,-0.02 -0.04,-0.03 -0.06,-0.05l-0.07 -0.06c0,0 -0.01,-0.01 -0.02,-0.01l-0.04 -0.04c-0.04,-0.03 -0.07,-0.06 -0.13,-0.05z"/>
   <path class="fil1" d="M0.46 0.2c-0.02,0 -0.04,0.03 -0.06,0.04l-0.15 0.12c-0.01,0 -0.02,0.02 -0.03,0.03 0,0.03 0.05,0.04 0.07,0.04 0.03,0.01 0.07,0.01 0.06,0.05 0,0.02 -0.01,0.05 -0.02,0.08 0,0.03 -0.02,0.08 0.02,0.08 0.03,-0.01 0.1,-0.07 0.13,-0.09 0.02,-0.02 0.05,-0.05 0.08,-0.07 0.03,-0.02 0.05,-0.05 0,-0.07 -0.02,0 -0.05,-0.01 -0.08,-0.02 -0.01,0 -0.02,-0.01 -0.02,-0.03 0.01,-0.04 0.03,-0.1 0.03,-0.14 0,-0.01 -0.01,-0.03 -0.03,-0.02z"/>
  </g>
 </g>
</svg>
