<svg
    xmlns="http://www.w3.org/2000/svg"
    width="24px"
    height="24px"
    viewBox="0 0 0.9 0.9"
    style={{
      shapeRendering: "geometricPrecision",
      textRendering: "geometricPrecision",
      imageRendering: "optimizeQuality",
      fillRule: "evenodd",
      clipRule: "evenodd",
    }}
  >
    <path
      d="M0.13 0l0.63 0c0.08,0 0.14,0.06 0.14,0.13l0 0.63c0,0.08 -0.06,0.14 -0.14,0.14l-0.63 0c-0.07,0 -0.13,-0.06 -0.13,-0.14l0 -0.63c0,-0.07 0.06,-0.13 0.13,-0.13zm0.62 0.26l-0.36 0c-0.02,0 -0.04,0.01 -0.05,0.02 -0.01,0.01 -0.02,0.03 -0.02,0.05l0 0.45c0,0.01 0,0.01 -0.01,0.02l-0.14 0c-0.01,0 -0.02,-0.01 -0.02,-0.02l0 -0.45c0,-0.03 0.01,-0.05 0.01,-0.08 0.01,-0.02 0.02,-0.04 0.03,-0.06 0.02,-0.02 0.03,-0.03 0.05,-0.04 0.01,-0.02 0.03,-0.03 0.05,-0.03 0.01,-0.01 0.03,-0.02 0.05,-0.02 0.02,0 0.03,-0.01 0.05,-0.01l0.36 0c0.01,0 0.02,0.01 0.02,0.03l0 0.12c0,0.02 -0.01,0.02 -0.02,0.02zm-0.1 0.33c0.05,0 0.1,0.04 0.1,0.1 0,0.05 -0.05,0.1 -0.1,0.1 -0.06,0 -0.1,-0.05 -0.1,-0.1 0,-0.06 0.04,-0.1 0.1,-0.1z"
      fill="#201E1E"
    />
  </svg>